<?xml version="1.0" encoding="UTF-8" standalone="no"?>
<!DOCTYPE svg PUBLIC "-//W3C//DTD SVG 1.1//EN"
 "http://www.w3.org/Graphics/SVG/1.1/DTD/svg11.dtd">
<!-- Generated by graphviz version 2.43.0 (0)
 -->
<!-- Title: %3 Pages: 1 -->
<svg width="584pt" height="332pt"
 viewBox="0.00 0.00 583.81 332.00" xmlns="http://www.w3.org/2000/svg" xmlns:xlink="http://www.w3.org/1999/xlink">
<g id="graph0" class="graph" transform="scale(1 1) rotate(0) translate(4 328)">
<title>%3</title>
<polygon fill="white" stroke="transparent" points="-4,4 -4,-328 579.81,-328 579.81,4 -4,4"/>
<!-- [root] aws_eip.base -->
<g id="node1" class="node">
<title>[root] aws_eip.base</title>
<polygon fill="none" stroke="black" points="367.9,-180 277.39,-180 277.39,-144 367.9,-144 367.9,-180"/>
<text text-anchor="middle" x="322.64" y="-157.8" font-family="Times,serif" font-size="14.00">aws_eip.base</text>
</g>
<!-- [root] aws_instance.base -->
<g id="node2" class="node">
<title>[root] aws_instance.base</title>
<polygon fill="none" stroke="black" points="382.16,-108 263.13,-108 263.13,-72 382.16,-72 382.16,-108"/>
<text text-anchor="middle" x="322.64" y="-85.8" font-family="Times,serif" font-size="14.00">aws_instance.base</text>
</g>
<!-- [root] aws_eip.base&#45;&gt;[root] aws_instance.base -->
<g id="edge1" class="edge">
<title>[root] aws_eip.base&#45;&gt;[root] aws_instance.base</title>
<path fill="none" stroke="black" d="M322.64,-143.7C322.64,-135.98 322.64,-126.71 322.64,-118.11"/>
<polygon fill="black" stroke="black" points="326.14,-118.1 322.64,-108.1 319.14,-118.1 326.14,-118.1"/>
</g>
<!-- [root] provider.aws -->
<g id="node3" class="node">
<title>[root] provider.aws</title>
<polygon fill="none" stroke="black" points="322.64,-36 244.04,-18 322.64,0 401.25,-18 322.64,-36"/>
<text text-anchor="middle" x="322.64" y="-13.8" font-family="Times,serif" font-size="14.00">provider.aws</text>
</g>
<!-- [root] aws_instance.base&#45;&gt;[root] provider.aws -->
<g id="edge2" class="edge">
<title>[root] aws_instance.base&#45;&gt;[root] provider.aws</title>
<path fill="none" stroke="black" d="M322.64,-71.7C322.64,-63.98 322.64,-54.71 322.64,-46.11"/>
<polygon fill="black" stroke="black" points="326.14,-46.1 322.64,-36.1 319.14,-46.1 326.14,-46.1"/>
</g>
<!-- [root] meta.count&#45;boundary (EachMode fixup) -->
<g id="node4" class="node">
<title>[root] meta.count&#45;boundary (EachMode fixup)</title>
<ellipse fill="none" stroke="black" cx="174.64" cy="-234" rx="174.79" ry="18"/>
<text text-anchor="middle" x="174.64" y="-229.8" font-family="Times,serif" font-size="14.00">[root] meta.count&#45;boundary (EachMode fixup)</text>
</g>
<!-- [root] meta.count&#45;boundary (EachMode fixup)&#45;&gt;[root] aws_eip.base -->
<g id="edge3" class="edge">
<title>[root] meta.count&#45;boundary (EachMode fixup)&#45;&gt;[root] aws_eip.base</title>
<path fill="none" stroke="black" d="M210.09,-216.23C230.21,-206.72 255.59,-194.71 277.16,-184.51"/>
<polygon fill="black" stroke="black" points="278.91,-187.56 286.46,-180.12 275.92,-181.23 278.91,-187.56"/>
</g>
<!-- [root] provider.aws (close) -->
<g id="node5" class="node">
<title>[root] provider.aws (close)</title>
<ellipse fill="none" stroke="black" cx="471.64" cy="-234" rx="104.33" ry="18"/>
<text text-anchor="middle" x="471.64" y="-229.8" font-family="Times,serif" font-size="14.00">[root] provider.aws (close)</text>
</g>
<!-- [root] provider.aws (close)&#45;&gt;[root] aws_eip.base -->
<g id="edge4" class="edge">
<title>[root] provider.aws (close)&#45;&gt;[root] aws_eip.base</title>
<path fill="none" stroke="black" d="M437.46,-216.94C416.94,-207.3 390.57,-194.91 368.28,-184.44"/>
<polygon fill="black" stroke="black" points="369.55,-181.17 359.01,-180.08 366.57,-187.5 369.55,-181.17"/>
</g>
<!-- [root] root -->
<g id="node6" class="node">
<title>[root] root</title>
<ellipse fill="none" stroke="black" cx="322.64" cy="-306" rx="46.9" ry="18"/>
<text text-anchor="middle" x="322.64" y="-301.8" font-family="Times,serif" font-size="14.00">[root] root</text>
</g>
<!-- [root] root&#45;&gt;[root] meta.count&#45;boundary (EachMode fixup) -->
<g id="edge5" class="edge">
<title>[root] root&#45;&gt;[root] meta.count&#45;boundary (EachMode fixup)</title>
<path fill="none" stroke="black" d="M294.11,-291.5C272.81,-281.43 243.3,-267.47 218.94,-255.95"/>
<polygon fill="black" stroke="black" points="220.42,-252.78 209.88,-251.67 217.43,-259.11 220.42,-252.78"/>
</g>
<!-- [root] root&#45;&gt;[root] provider.aws (close) -->
<g id="edge6" class="edge">
<title>[root] root&#45;&gt;[root] provider.aws (close)</title>
<path fill="none" stroke="black" d="M351.02,-291.67C372.81,-281.43 403.27,-267.12 428.13,-255.44"/>
<polygon fill="black" stroke="black" points="429.79,-258.53 437.36,-251.11 426.82,-252.19 429.79,-258.53"/>
</g>
</g>
</svg>
